<svg width="900" height="477" viewBox="0 0 900 477" fill="none" xmlns="http://www.w3.org/2000/svg">
<path d="M813.209 338.155C814.125 337.286 817.06 331.358 818.158 296.185C818.594 282.24 810.108 269.738 799.109 258.859C792.462 252.285 784.697 253.571 770.168 253.402C758.875 253.271 749.358 262.567 745.81 268.292C739.817 277.961 741.026 284.918 741.019 296.371C741.016 302.961 744.196 308.684 748.151 315.484C752.423 322.831 756.658 325.451 760.156 329.443C761.095 330.515 762.013 331.587 762.039 331.853C762.642 338.066 746.093 321.163 736.962 317.781C725.532 313.548 708.023 316.853 701.595 318.272C691.011 320.609 683.901 328.214 680.235 333.266C675.782 339.402 677.195 345.167 676.793 350.475C676.485 354.538 677.292 358.69 679.008 362.215C684.456 373.41 700.769 379.767 711.309 382.741C716.597 384.233 729.059 383.971 744.497 383.895C756.069 383.837 761.54 380.602 762.473 380.684C765.999 380.994 752.282 387.089 746.212 392.153C742.275 395.438 739.905 403.793 738.961 412.863C738.366 418.574 744.581 423.955 751.606 429.513C759.55 435.799 782.863 437.175 795.398 436.673C805.697 436.262 816.68 426.955 822.338 421.744C826.794 417.64 826.55 409.814 825.402 403.596C824.416 398.252 819.999 396.105 819.84 394.364C819.336 388.867 831.275 389.943 846.104 388.34C868.282 385.943 877.305 378.625 884.425 373.884C890.697 369.708 892.556 365.692 894.498 361.835C895.575 359.696 895.753 355.695 895.524 351.018C895.165 343.675 886.391 336.798 879.429 331.857C870.694 325.658 849.32 331.229 835.228 335.772C827.317 338.323 822.312 341.883 818.888 344.054C817.233 345.103 814.595 345.02 811.879 344.496C810.586 344.246 809.793 342.957 809.257 341.914C808.721 340.871 808.549 339.839 808.824 338.947C809.099 338.056 809.825 337.338 812.497 335.514" stroke="black" stroke-width="7" stroke-linecap="round"/>
<path d="M648.996 224.507C648.329 223.435 643.116 219.362 608.891 211.181C595.321 207.938 581.363 213.723 568.487 222.297C560.705 227.479 560.396 235.344 557.296 249.539C554.886 260.573 562.068 271.772 566.958 276.403C575.217 284.225 582.275 284.447 593.49 286.767C599.943 288.102 606.191 286.143 613.65 283.644C621.708 280.944 625.129 277.326 629.746 274.706C630.985 274.003 632.221 273.32 632.487 273.349C638.693 274.013 618.795 286.807 613.639 295.067C607.184 305.405 606.884 323.221 606.975 329.804C607.126 340.641 613.138 349.141 617.345 353.752C622.455 359.353 628.386 359.133 633.504 360.6C637.42 361.721 641.65 361.77 645.45 360.802C657.514 357.728 667.036 343.036 672.077 333.313C674.607 328.436 676.868 316.178 679.912 301.042C682.193 289.697 680.13 283.685 680.399 282.789C681.414 279.398 684.612 294.063 688.346 301.031C690.768 305.55 698.472 309.56 707.164 312.317C712.637 314.053 719.163 309.053 726.026 303.296C733.787 296.785 739.844 274.231 741.885 261.853C743.562 251.683 736.666 239.047 732.706 232.453C729.586 227.259 721.873 225.917 715.55 225.785C710.117 225.672 707.123 229.563 705.385 229.368C699.9 228.751 703.366 217.276 704.792 202.428C706.924 180.223 701.58 169.909 698.375 161.977C695.552 154.991 691.994 152.359 688.609 149.678C686.732 148.191 682.85 147.208 678.223 146.487C670.959 145.356 662.45 152.56 656.205 158.38C648.369 165.682 649.508 187.741 651.111 202.461C652.01 210.724 654.486 216.345 655.92 220.136C656.614 221.969 656 224.536 654.937 227.091C654.431 228.307 653.009 228.822 651.879 229.137C650.75 229.451 649.703 229.411 648.886 228.962C648.069 228.513 647.512 227.656 646.266 224.671" stroke="black" stroke-width="7" stroke-linecap="round"/>
<path d="M478.036 356.904C476.953 357.554 472.803 362.705 464.108 396.803C460.661 410.323 466.236 424.366 474.615 437.37C479.679 445.229 487.539 445.656 501.686 448.97C512.682 451.545 523.987 444.532 528.692 439.713C536.638 431.572 536.965 424.518 539.454 413.339C540.886 406.907 539.021 400.631 536.634 393.135C534.056 385.037 530.489 381.562 527.94 376.906C527.255 375.656 526.591 374.411 526.624 374.145C527.381 367.949 539.874 388.037 548.055 393.318C558.296 399.927 576.105 400.495 582.688 400.503C593.526 400.515 602.116 394.632 606.79 390.495C612.467 385.469 612.337 379.535 613.88 374.44C615.06 370.541 615.172 366.313 614.261 362.499C611.37 350.39 596.822 340.648 587.177 335.461C582.338 332.858 570.115 330.413 555.027 327.142C543.718 324.69 537.675 326.663 536.783 326.381C533.408 325.314 548.119 322.337 555.143 318.708C559.698 316.355 563.823 308.712 566.71 300.062C568.528 294.616 563.627 288.016 557.974 281.067C551.581 273.209 529.121 266.814 516.774 264.586C506.631 262.756 493.892 269.461 487.24 273.323C482 276.364 480.541 284.056 480.314 290.376C480.119 295.806 483.966 298.859 483.744 300.594C483.045 306.069 471.623 302.431 456.799 300.782C434.628 298.316 424.234 303.504 416.256 306.589C409.228 309.307 406.543 312.825 403.81 316.169C402.296 318.024 401.254 321.891 400.464 326.507C399.224 333.752 406.299 342.368 412.025 348.701C419.208 356.645 441.282 355.838 456.024 354.457C464.299 353.682 469.957 351.291 473.77 349.914C475.613 349.248 478.17 349.901 480.708 351.002C481.917 351.526 482.411 352.955 482.708 354.09C483.005 355.224 482.95 356.27 482.488 357.08C482.027 357.891 481.162 358.434 478.159 359.636" stroke="black" stroke-width="7" stroke-linecap="round"/>
<path d="M451.29 181.034C454.006 174.29 459.071 140.527 456.086 120.788C453.953 106.683 442.618 102.72 434.891 99.3512C423.361 94.3239 403.679 99.3789 392.388 105.345C383.608 109.984 382.139 138.591 383.937 154.176C385.019 163.551 392.712 168.538 395.59 172.852C399.662 178.954 382.83 163.397 371.22 162.075C346.855 159.302 337.93 165.042 329.223 170.216C321.653 174.713 321.585 190.513 323.429 200.532C324.876 208.389 335.461 211.852 344.551 216.718C352.953 221.217 369.974 220.142 387.111 220.871C392.421 221.096 390.707 222.775 388.806 224.442C379.863 232.281 373.21 242.541 370.436 251.67C367.439 261.534 370.524 274.162 375.479 281.998C378.228 286.347 382.476 289.549 386.65 292.301C390.865 295.08 396.19 295.311 401.846 294.386C416.545 291.98 423.116 282.211 435.752 264.524C442.869 254.562 441.522 246.262 442.585 242.198C444.697 234.12 471.34 250.194 508.537 252.819C528.822 254.25 546.868 235.546 555.919 224.335C562.504 216.178 559.997 206.191 560.006 192.021C560.012 181.588 552.209 172.88 544.573 165.35C536.042 156.937 519.433 153.792 499.759 152.891C477.947 151.892 467.72 166.141 460.713 171.733C457.433 174.125 454.35 176.747 451.55 179.824C450.28 181.388 449.318 182.958 446.783 185.59" stroke="black" stroke-width="7" stroke-linecap="round"/>
<path d="M291.731 342.773C297.273 347.477 327.715 362.935 347.387 366.329C361.445 368.755 368.782 359.248 374.416 352.979C382.824 343.623 384.236 323.352 382.137 310.755C380.505 300.961 353.821 290.542 338.465 287.332C329.228 285.401 322.068 291.127 317.067 292.498C309.992 294.437 330.065 283.372 334.981 272.772C345.3 250.526 342.668 240.246 340.505 230.351C338.626 221.749 323.654 216.7 313.564 215.29C305.653 214.184 299.027 223.136 291.542 230.226C284.622 236.78 280.273 253.271 274.175 269.304C272.286 274.271 271.234 272.115 270.252 269.785C265.634 258.826 257.997 249.276 250.209 243.764C241.794 237.808 228.838 236.752 219.839 238.981C214.844 240.218 210.466 243.239 206.538 246.332C202.571 249.455 200.671 254.435 199.766 260.094C197.412 274.802 204.609 284.119 217.406 301.689C224.615 311.586 232.916 312.925 236.437 315.216C243.436 319.769 219.778 339.98 205.552 374.45C197.795 393.247 209.85 416.273 217.634 428.398C223.297 437.22 233.565 437.992 247.009 442.47C256.907 445.768 267.632 441.111 277.187 436.24C287.861 430.798 296.085 416.03 303.147 397.645C310.976 377.261 300.68 363.062 297.585 354.648C296.349 350.782 294.834 347.028 292.798 343.401C291.714 341.703 290.528 340.294 288.829 337.058" stroke="black" stroke-width="7" stroke-linecap="round"/>
<path d="M186.149 137.485C185.2 133.266 181.238 118.818 176.701 108.086C167.678 86.7438 136.753 68.4431 124.998 66.3195C111.195 63.826 101.859 73.6542 92.5794 82.9419C81.6298 93.9004 80.7657 104.521 75.6921 119.245C71.7194 130.775 76.3546 146.16 82.9057 159.759C90.5644 175.657 113.435 179.555 119.454 182.588C133.175 189.501 103.816 200.249 95.3191 212.529C86.1936 225.719 83.5497 244.749 82.6877 263.713C81.9042 280.953 99.4067 295.835 108.612 300.938C114.081 303.97 121.052 303.632 126.692 303.877C142.613 304.566 161.94 285.909 173.207 271.249C177.134 266.141 179.211 262.132 180.989 258.547C185.052 250.354 179.682 239.802 175.519 227.462C172.163 217.514 206.3 226.727 231.895 219.577C256.201 212.786 277.499 190.724 292.667 172.957C300.519 163.758 302.974 157.661 304.388 151.598C306.789 141.305 301.111 130.788 293.686 117.041C291.059 112.177 287.579 109.007 282.427 105.648C275.221 100.948 267.664 100.873 263.17 101.185C247.595 102.263 229.844 117.507 215.509 128.084C210.198 132.003 201.526 136.219 196.511 137.921C191.496 139.623 190.112 138.257 188.768 136.41C187.425 134.564 186.164 132.278 184.864 129.923" stroke="black" stroke-width="7" stroke-linecap="round"/>
</svg>
