<svg width="1001" height="1267" viewBox="0 0 1001 1267" fill="none" xmlns="http://www.w3.org/2000/svg">
<path d="M47.9213 162.013C49.394 155.142 57.2385 133.669 69.0564 109.11C81.3543 83.5535 94.3699 59.6755 105.972 42.5633C108.253 39.1991 110.226 35.7852 113.409 34.3357C116.591 32.8862 120.865 33.4666 124.902 35.8595C144.643 47.5619 159.545 64.7143 174.095 78.4139C190.428 93.7925 215.676 114.893 231.442 132.658C241.673 144.186 251.98 151.732 258.314 153.611C274.36 158.368 287.686 123.544 300.362 106.339C313.263 88.8295 324.668 71.9636 349.83 37.6753C358.457 25.9195 365.24 18.7039 372.428 14.6056C384.865 7.51415 408.597 45.6626 429.281 66.6797C443.619 81.2492 459.194 95.0282 472.617 105.121C485.654 114.924 499.059 128.206 514.052 138.973C527.823 148.861 541.084 116.477 555.523 96.8784C568.619 79.1031 587.306 64.6606 608.38 43.4429C622.864 28.8595 637.759 15.6391 650.661 6.17381C655.869 2.35386 660.254 3.52981 664.106 5.62543C681.978 15.3504 692.224 37.8897 708.874 59.2417C727.41 83.0114 742.379 96.1952 757.168 108.765C773.302 122.477 780.703 135.857 788.067 140.456C800.596 148.279 812.858 120.82 823.646 109.237C836.486 95.4507 862.43 75.1406 882.088 54.0165C896.797 38.2099 911.395 22.6624 921.986 13.7957C926.325 10.1629 931.061 11.9422 934.435 15.1622C954.259 34.0771 960.498 66.6575 966.927 83.2901C974.516 102.928 988.289 126.04 993.852 141.079C1000.12 158.019 997.707 175.514 996.656 192.618C995.262 215.309 992.892 243.382 983.245 324.707C979.722 354.41 978.526 371.126 967.94 411.709C960.099 441.77 957.2 472.27 943.571 537.469C937.667 565.71 930.799 591.575 923.027 616.336C913.44 646.881 905.058 688.646 896.871 725.672C890.809 753.091 875.62 790.906 866.929 813.735C856.84 840.237 842.218 878.128 834.275 901.558C827.948 920.221 823.621 939.192 818.364 959.664C811.764 985.364 804.465 1008.09 796.223 1035.71C788.101 1062.92 779.003 1101.29 775.179 1120.15C770.522 1143.1 765.559 1162.58 757.041 1185.69C750.184 1204.29 715.869 1214.86 639.6 1238.64C597.349 1251.81 551.514 1252 512.725 1255.9C499.586 1257.22 489.26 1258.02 478.643 1258.28C465.623 1258.59 402.209 1261.37 314.003 1263.56C262.839 1264.82 236.475 1258.02 192.298 1247.25C169.095 1241.59 149.058 1230.44 132.628 1224.38C117.072 1218.64 112.228 1193.3 103.924 1171.07C93.179 1142.3 76.2815 1100.65 69.296 1078.48C57.7369 1041.8 53.2698 1013.21 48.6975 972.518C46.8304 955.902 41.2867 932.407 35.4658 891.796C29.6449 851.184 22.8812 794.283 19.3968 752.469C13.8408 685.794 15.3129 655.126 14.4044 641.447C12.9582 619.673 13.4191 600.571 11.0415 555.151C8.96623 515.504 6.63487 442.088 4.72306 401.938C1.53103 334.902 4.52595 288.197 11.9113 258.041C16.6894 238.531 27.6296 221.265 33.9011 204.897C39.4398 189.728 43.2261 178.369 46.306 171.205C47.9468 167.686 49.7456 164.405 54.8696 157.71" stroke="black" stroke-width="6" stroke-linecap="round"/>
<path d="M47.8404 161.363C47.8683 161.733 47.823 162.727 47.7314 163.201C47.6375 163.686 47.5318 164.114 47.405 164.673C47.2996 165.137 47.2556 165.607 47.1925 166.095C47.1236 166.628 47.0437 167.063 46.9057 167.527C46.7122 168.179 46.5648 168.738 46.4538 169.287C46.3138 169.98 46.3239 170.416 46.2784 170.852C46.2329 171.287 46.1153 171.908 45.9811 172.435C45.8935 172.652 45.8039 172.875 45.7216 173.083C45.6806 173.182 45.6412 173.27 45.6006 173.359" stroke="black" stroke-width="6" stroke-linecap="round"/>
</svg>
