<svg width="553" height="1104" viewBox="0 0 553 1104" fill="none" xmlns="http://www.w3.org/2000/svg">
<path d="M19 14C19 20.4286 19.349 37.8662 20.0216 73.4088C21.5697 155.217 21.7575 212.978 23.0126 220.199C23.8535 233.804 25.1087 244.72 25.7362 252.042C25.9496 256.016 25.9496 260.515 25.9496 265.149" stroke="black" stroke-width="7" stroke-linecap="round"/>
<path d="M274.809 4C276.095 7.47456 276.936 26.9545 279.227 47.7203C280.128 55.8897 280.701 97.1276 280.191 156.114C279.896 190.254 276.782 203.998 276.179 219.257C276.002 223.219 275.649 227.303 275.115 231.162C274.58 235.021 273.875 238.53 274.019 243.888" stroke="black" stroke-width="7" stroke-linecap="round"/>
<path d="M548.761 4C544.47 17.0922 532.522 64.5078 521.886 108.061C511.302 159.433 507.964 174.457 503.608 193.345C501.762 200.937 498.924 212.281 496 224.841" stroke="black" stroke-width="7" stroke-linecap="round"/>
<path d="M6.64897 830C6.64897 830.575 5.81677 837.863 4.55585 873.401C3.54351 901.933 4.12713 951.838 4.63336 981.865C8.85192 1037.07 13.1053 1060.07 14.8983 1073.68C15.8015 1079.75 16.6912 1084.14 18.6655 1095.91" stroke="black" stroke-width="7" stroke-linecap="round"/>
<path d="M210 857C209.521 865.747 196.291 922.565 186.205 976.713C174.473 1050.69 176.564 1066 175.937 1075.55C175.723 1081.38 175.723 1089.19 177.467 1099.85" stroke="black" stroke-width="7" stroke-linecap="round"/>
<path d="M426.016 823C425.433 823 410.494 860.975 384.597 930.769C363.949 986.416 352.576 1026.39 342.986 1050.89C337.048 1067.86 333.915 1078.05 332.166 1084.94C331.475 1088.31 331.184 1091.44 330 1095.53" stroke="black" stroke-width="7" stroke-linecap="round"/>
</svg>
