<svg width="546" height="532" viewBox="0 0 546 532" fill="none" xmlns="http://www.w3.org/2000/svg">
<path d="M103.47 181.34C98.4033 185.14 93.0833 187.927 87.51 189.7C82.0633 191.347 76.6167 191.79 71.17 191.03C65.7233 190.27 61.0367 187.927 57.11 184C53.5633 195.273 51.1567 206.42 49.89 217.44C49.3833 219.467 48.4967 221.303 47.23 222.95C44.95 229.663 39.9467 234.16 32.22 236.44C24.62 238.593 17.5267 238.213 10.94 235.3C7.9 233.907 5.36667 231.88 3.34 229.22C1.31333 226.56 0.3 223.33 0.3 219.53C9.04 189.257 17.4633 164.43 25.57 145.05C27.3433 140.997 28.7367 137.703 29.75 135.17C30.89 132.637 31.9033 130.483 32.79 128.71C33.6767 126.937 34.4367 125.417 35.07 124.15C35.83 122.757 36.7167 121.237 37.73 119.59C40.01 115.79 42.6067 111.357 45.52 106.29C48.56 101.097 51.0933 97.2333 53.12 94.7C55.2733 92.1667 57.49 90.0133 59.77 88.24C62.1767 86.34 64.7733 84.5667 67.56 82.92C70.4733 81.2733 74.0833 79.12 78.39 76.46C82.6967 73.8 87.2567 72.2167 92.07 71.71C97.01 71.0767 101.697 71.4567 106.13 72.85C115.503 75.7633 122.407 82.2867 126.84 92.42C130.64 101.793 131.273 114.397 128.74 130.23C124.813 154.423 116.39 171.46 103.47 181.34ZM63.76 164.43C74.1467 162.15 81.3667 155.373 85.42 144.1C88.84 134.6 89.5367 123.833 87.51 111.8C84.5967 116.74 81.9367 121.87 79.53 127.19C77.25 132.51 75.16 137.26 73.26 141.44C69.08 150.813 65.9133 158.477 63.76 164.43ZM154.475 222.57C153.335 227.637 149.408 230.74 142.695 231.88C136.488 233.02 130.598 232.323 125.025 229.79C118.818 227.13 116.095 223.393 116.855 218.58C116.095 211.233 119.958 195.273 128.445 170.7C141.111 133.84 153.778 107.493 166.445 91.66C169.738 87.6067 172.525 85.01 174.805 83.87C177.211 82.6033 179.935 81.4633 182.975 80.45C186.015 79.4367 189.181 78.4867 192.475 77.6C199.061 75.8267 205.268 74.6233 211.095 73.99C217.048 73.23 222.368 73.9267 227.055 76.08C231.741 78.1067 235.351 81.1467 237.885 85.2C240.545 89.2533 242.191 94.0667 242.825 99.64C243.458 105.087 243.268 110.85 242.255 116.93C241.241 122.883 239.405 128.963 236.745 135.17C234.085 141.25 230.728 146.95 226.675 152.27C217.808 163.923 207.421 171.46 195.515 174.88L197.415 178.11C199.061 180.643 201.025 183.43 203.305 186.47C205.711 189.51 208.055 192.613 210.335 195.78C212.741 198.947 214.895 202.113 216.795 205.28C218.695 208.447 220.088 211.423 220.975 214.21C223.001 220.417 221.418 224.913 216.225 227.7C212.045 230.233 208.751 230.867 206.345 229.6C205.331 228.967 204.318 228.143 203.305 227.13C202.291 226.243 200.898 225.483 199.125 224.85C191.651 227.003 185.951 225.103 182.025 219.15C179.618 215.35 177.781 211.867 176.515 208.7C175.248 205.533 174.171 202.873 173.285 200.72C171.005 196.033 168.408 191.98 165.495 188.56C164.101 191.98 162.518 196.35 160.745 201.67C158.591 208.383 156.185 215.35 153.525 222.57H154.475ZM192.855 111.99C190.448 117.437 188.801 121.237 187.915 123.39C186.141 127.697 184.178 132.447 182.025 137.64C181.645 140.427 181.328 142.39 181.075 143.53L183.735 140.87L186.965 139.35C189.245 138.083 191.335 136.943 193.235 135.93C195.135 134.917 196.845 133.65 198.365 132.13C201.278 129.217 203.811 124.467 205.965 117.88C205.965 116.613 206.155 115.347 206.535 114.08C207.041 112.813 207.358 111.547 207.485 110.28C207.991 107.493 206.851 105.53 204.065 104.39C201.531 104.137 198.365 106.227 194.565 110.66C193.805 111.547 193.235 111.99 192.855 111.99ZM270.381 96.22C278.361 87.1 287.227 81.4 296.981 79.12C303.694 77.4733 310.027 77.7267 315.981 79.88C320.667 74.94 326.747 73.1667 334.221 74.56C341.061 75.8267 346.887 79.69 351.701 86.15C351.954 87.0367 352.461 88.3667 353.221 90.14C354.107 91.9133 354.931 93.8767 355.691 96.03C361.264 108.95 361.707 125.923 357.021 146.95C351.194 173.043 340.871 195.147 326.051 213.26C321.491 218.833 316.361 223.457 310.661 227.13C301.541 234.097 290.647 237.2 277.981 236.44C270.127 236.06 263.541 234.097 258.221 230.55C237.067 220.037 230.164 198.123 237.511 164.81C243.591 137.45 254.547 114.587 270.381 96.22ZM272.661 197.11L272.471 198.25L272.851 200.34C273.611 204.267 274.877 207.307 276.651 209.46C278.424 211.487 279.881 212.753 281.021 213.26C282.287 212.247 283.554 211.297 284.821 210.41C286.087 209.523 287.227 208.447 288.241 207.18C296.854 196.54 303.567 182.607 308.381 165.38C313.194 148.153 314.967 132.193 313.701 117.5C308.761 123.833 303.567 131.117 298.121 139.35C292.674 147.583 288.367 154.613 285.201 160.44C277.981 173.993 273.801 186.217 272.661 197.11ZM381.088 202.81L380.898 207.37C380.898 208.13 381.025 209.65 381.278 211.93C382.418 213.323 383.622 213.64 384.888 212.88C385.902 212.247 388.182 210.473 391.728 207.56C397.555 198.82 402.368 190.207 406.168 181.72C414.908 161.833 421.115 144.86 424.788 130.8C425.928 126.62 427.005 122.503 428.018 118.45C429.158 114.397 430.235 110.28 431.248 106.1C432.388 101.793 433.655 97.36 435.048 92.8V92.04C437.202 84.5667 442.712 78.74 451.578 74.56C460.065 70.38 467.348 69.7467 473.428 72.66C476.342 74.0533 478.432 76.46 479.698 79.88C480.965 83.1733 480.838 87.67 479.318 93.37C476.405 102.11 473.492 111.293 470.578 120.92C467.665 130.547 464.562 140.237 461.268 149.99C457.975 159.617 454.302 169.053 450.248 178.3C446.195 187.547 441.508 196.033 436.188 203.76C424.408 220.987 410.475 232.387 394.388 237.96C392.615 238.72 391.095 239.163 389.828 239.29C388.688 239.417 386.978 239.607 384.698 239.86C382.418 240.24 379.505 240.303 375.958 240.05C372.538 239.923 369.182 239.353 365.888 238.34C358.288 236.187 353.602 232.387 351.828 226.94C349.802 219.34 349.042 213.83 349.548 210.41C349.928 206.863 350.625 204.013 351.638 201.86C352.652 199.707 353.918 197.427 355.438 195.02H355.628C356.768 192.867 358.542 191.03 360.948 189.51C363.482 187.99 366.078 187.04 368.738 186.66C371.525 186.153 374.058 186.343 376.338 187.23C378.745 188.117 380.328 189.827 381.088 192.36C381.215 193.753 381.278 195.527 381.278 197.68C381.278 199.833 381.215 201.543 381.088 202.81ZM48.94 493.06C56.2867 493.82 61.7333 494.2 65.28 494.2C68.9533 494.2 74.4633 493.693 81.81 492.68C84.09 493.44 85.42 494.39 85.8 495.53C86.18 496.67 86.3067 497.873 86.18 499.14C86.0533 500.28 86.1167 501.42 86.37 502.56C86.6233 503.7 87.8267 504.65 89.98 505.41C91.12 505.79 91.4367 506.93 90.93 508.83C90.55 510.603 89.5367 512.567 87.89 514.72C83.71 520.167 78.77 523.967 73.07 526.12C63.95 528.4 56.7933 529.73 51.6 530.11C42.9867 530.743 33.6133 530.427 23.48 529.16C12.3333 527.133 6.95 522.51 7.33 515.29C7.33 488.69 13.1567 461.963 24.81 435.11C28.61 426.37 32.9167 417.187 37.73 407.56C38.7433 405.533 39.3133 403.253 39.44 400.72C39.6933 398.187 39.8833 395.717 40.01 393.31C40.1367 390.903 40.5167 388.75 41.15 386.85C41.7833 384.95 43.1133 383.62 45.14 382.86C71.4867 372.347 92.3233 368.293 107.65 370.7C112.97 370.827 116.453 372.663 118.1 376.21C119.873 379.63 120.063 383.493 118.67 387.8C117.403 392.107 114.807 396.16 110.88 399.96C107.08 403.76 102.267 406.103 96.44 406.99C88.9667 409.143 84.4067 410.6 82.76 411.36C79.5933 412.88 77.3133 414.907 75.92 417.44C74.1467 420.227 72.5 422.887 70.98 425.42C69.46 427.953 68.3833 430.677 67.75 433.59L66.99 437.77C69.3967 438.91 72.31 439.29 75.73 438.91C79.2767 438.403 82.5067 437.96 85.42 437.58C88.46 437.073 90.8667 437.01 92.64 437.39C94.54 437.77 94.92 439.67 93.78 443.09C92.7667 446.383 90.8033 450.12 87.89 454.3C85.1033 458.48 81.1133 461.52 75.92 463.42C72.6267 464.053 70.3467 464.56 69.08 464.94C67.94 465.193 67.0533 465.383 66.42 465.51C65.5333 465.637 63 465.827 58.82 466.08C52.8667 476.213 49.2567 484.067 47.99 489.64C47.4833 491.92 47.8 493.06 48.94 493.06ZM190.949 422.38C190.949 418.58 189.619 416.68 186.959 416.68C185.945 416.68 184.742 416.933 183.349 417.44C181.955 417.947 180.625 418.39 179.359 418.77C174.672 421.303 170.999 424.09 168.339 427.13C165.805 430.043 163.209 433.337 160.549 437.01C157.889 440.683 155.609 444.61 153.709 448.79C151.809 452.97 150.352 456.897 149.339 460.57C145.665 474.123 147.059 483.243 153.519 487.93C156.179 489.83 158.965 490.78 161.879 490.78C164.919 490.653 167.325 490.02 169.099 488.88C170.999 487.74 172.835 486.663 174.609 485.65C176.382 484.637 178.409 483.94 180.689 483.56C183.095 483.053 186.009 483.37 189.429 484.51C192.975 485.523 194.875 486.917 195.129 488.69C195.382 490.463 195.382 492.3 195.129 494.2C194.875 496.1 194.812 497.81 194.939 499.33C195.192 500.85 196.585 501.8 199.119 502.18C201.525 505.22 200.005 508.893 194.559 513.2C193.165 514.34 191.835 515.417 190.569 516.43C179.675 523.397 168.085 527.26 155.799 528.02C148.072 528.527 139.839 527.133 131.099 523.84C118.052 518.9 110.705 507.817 109.059 490.59C106.905 474.63 108.932 458.1 115.139 441C120.332 426.56 128.185 413.197 138.699 400.91C148.199 389.637 157.572 382.29 166.819 378.87C177.839 373.17 189.745 370.953 202.539 372.22C216.092 373.993 224.959 379.757 229.139 389.51C233.319 399.263 232.622 410.98 227.049 424.66C225.149 429.473 221.539 433.273 216.219 436.06C211.659 438.593 206.719 439.86 201.399 439.86C196.079 439.86 192.659 438.213 191.139 434.92C189.619 431.5 189.555 427.32 190.949 422.38ZM280.675 468.36C277.255 478.24 273.771 487.74 270.225 496.86C266.678 505.98 263.701 512.883 261.295 517.57C259.015 522.383 256.988 525.677 255.215 527.45C253.441 529.223 251.605 530.427 249.705 531.06C247.931 531.693 246.095 531.947 244.195 531.82C242.421 531.693 240.585 531.567 238.685 531.44C228.045 529.793 224.751 522.13 228.805 508.45C231.465 497.557 233.618 488.69 235.265 481.85C236.911 474.883 238.241 469.183 239.255 464.75C240.395 460.19 241.345 456.453 242.105 453.54C242.865 450.5 243.688 447.523 244.575 444.61C245.461 441.697 246.538 438.403 247.805 434.73C249.198 431.057 250.971 426.18 253.125 420.1C248.311 420.733 244.005 420.227 240.205 418.58C234.631 416.173 232.351 410.98 233.365 403C233.871 399.327 235.835 395.907 239.255 392.74C241.028 391.093 243.118 389.32 245.525 387.42C250.465 383.493 260.281 379.313 274.975 374.88C290.175 370.32 303.221 368.167 314.115 368.42C317.028 367.913 320.005 368.293 323.045 369.56C326.211 370.7 328.745 372.283 330.645 374.31C332.545 376.337 333.495 378.553 333.495 380.96C333.621 383.367 332.101 385.52 328.935 387.42C327.415 388.433 326.338 390.143 325.705 392.55C325.071 394.83 324.375 397.3 323.615 399.96C322.855 402.493 321.715 404.837 320.195 406.99C318.801 409.143 316.521 410.41 313.355 410.79C311.708 411.677 309.365 412.31 306.325 412.69C303.411 413.07 301.448 413.387 300.435 413.64C299.548 413.767 299.041 414.083 298.915 414.59C296.635 421.303 293.911 429.473 290.745 439.1C287.578 448.6 284.221 458.353 280.675 468.36ZM255.025 418.01C254.771 418.01 254.645 418.073 254.645 418.2C254.645 418.2 254.771 418.2 255.025 418.2V418.01ZM341.466 528.02C335.006 528.273 329.052 527.45 323.606 525.55C318.286 523.777 313.916 521.307 310.496 518.14C307.202 514.973 305.112 511.3 304.226 507.12C303.339 502.813 304.099 498.443 306.506 494.01C309.799 488.69 316.386 487.107 326.266 489.26C333.739 490.78 338.869 491.603 341.656 491.73C344.569 491.857 347.039 491.477 349.066 490.59C358.312 487.55 363.506 484.257 364.646 480.71C365.406 478.05 363.759 474.947 359.706 471.4C358.059 469.88 356.222 468.36 354.196 466.84C352.169 465.32 350.459 463.8 349.066 462.28C342.732 457.593 337.729 452.21 334.056 446.13C330.509 439.923 329.052 433.21 329.686 425.99C330.319 418.77 331.522 412.817 333.296 408.13C335.069 403.317 337.286 399.073 339.946 395.4C344.632 388.94 350.712 383.683 358.186 379.63C366.799 375.197 373.702 372.347 378.896 371.08C389.156 368.8 399.542 368.61 410.056 370.51C413.602 371.143 416.642 372.347 419.176 374.12C421.709 375.893 424.242 377.73 426.776 379.63C431.209 384.063 432.286 388.56 430.006 393.12C429.119 395.147 427.726 396.793 425.826 398.06C423.926 399.327 421.899 400.023 419.746 400.15C419.999 403.57 419.366 406.103 417.846 407.75C414.932 410.663 409.866 412.563 402.646 413.45C392.259 412.69 385.229 413.26 381.556 415.16C377.249 417.44 375.666 422.38 376.806 429.98C377.059 431.627 378.072 433.337 379.846 435.11C381.746 436.883 383.899 438.783 386.306 440.81C388.839 442.837 391.436 445.117 394.096 447.65C396.882 450.183 399.289 453.097 401.316 456.39C408.409 468.043 407.839 481.66 399.606 497.24C393.526 508.893 383.139 517.633 368.446 523.46C360.846 526.5 351.852 528.02 341.466 528.02Z" fill="black"/>
</svg>
